<svg width="32" height="32" viewBox="0 0 32 32" fill="none" xmlns="http://www.w3.org/2000/svg">
<path d="M15.9998 2.66667C8.63984 2.66667 2.6665 8.64 2.6665 16C2.6665 23.36 8.63984 29.3333 15.9998 29.3333C23.3598 29.3333 29.3332 23.36 29.3332 16C29.3332 8.64 23.3598 2.66667 15.9998 2.66667ZM15.9998 8C18.5732 8 20.6665 10.0933 20.6665 12.6667C20.6665 15.24 18.5732 17.3333 15.9998 17.3333C13.4265 17.3333 11.3332 15.24 11.3332 12.6667C11.3332 10.0933 13.4265 8 15.9998 8ZM15.9998 26.6667C13.2932 26.6667 10.0932 25.5733 7.81317 22.8267C10.1486 20.9943 13.0313 19.9984 15.9998 19.9984C18.9683 19.9984 21.851 20.9943 24.1865 22.8267C21.9065 25.5733 18.7065 26.6667 15.9998 26.6667Z" fill="white"/>
</svg>
