<svg width="32" height="32" viewBox="0 0 32 32" fill="none" xmlns="http://www.w3.org/2000/svg">
<path d="M13.3332 26.3307V21.8667C13.3332 20.156 14.6598 18.8107 16.6225 18.0427C15.3568 17.5719 14.0169 17.3316 12.6665 17.3333C10.1465 17.3333 7.8185 18.156 5.93717 19.5467C6.52051 21.1964 7.49996 22.6778 8.7895 23.8606C10.0791 25.0435 11.6393 25.8916 13.3332 26.3307ZM25.1732 21.448C24.6465 20.7373 22.8932 20 20.6665 20C17.9918 20 15.9998 21.0627 15.9998 21.8667V26.6667C17.8503 26.6677 19.6692 26.1871 21.2776 25.2721C22.886 24.357 24.2285 23.0392 25.1732 21.448ZM12.7332 15.3333C13.5288 15.3333 14.2919 15.0173 14.8545 14.4546C15.4171 13.892 15.7332 13.129 15.7332 12.3333C15.7332 11.5377 15.4171 10.7746 14.8545 10.212C14.2919 9.6494 13.5288 9.33333 12.7332 9.33333C11.9375 9.33333 11.1745 9.6494 10.6118 10.212C10.0492 10.7746 9.73317 11.5377 9.73317 12.3333C9.73317 13.129 10.0492 13.892 10.6118 14.4546C11.1745 15.0173 11.9375 15.3333 12.7332 15.3333ZM20.6665 16.6667C21.3737 16.6667 22.052 16.3857 22.5521 15.8856C23.0522 15.3855 23.3332 14.7072 23.3332 14C23.3332 13.2928 23.0522 12.6145 22.5521 12.1144C22.052 11.6143 21.3737 11.3333 20.6665 11.3333C19.9593 11.3333 19.281 11.6143 18.7809 12.1144C18.2808 12.6145 17.9998 13.2928 17.9998 14C17.9998 14.7072 18.2808 15.3855 18.7809 15.8856C19.281 16.3857 19.9593 16.6667 20.6665 16.6667ZM15.9998 29.3333C8.63584 29.3333 2.6665 23.364 2.6665 16C2.6665 8.636 8.63584 2.66666 15.9998 2.66666C23.3638 2.66666 29.3332 8.636 29.3332 16C29.3332 23.364 23.3638 29.3333 15.9998 29.3333Z" fill="white"/>
</svg>
