<svg width="73" height="73" viewBox="0 0 73 73" fill="none" xmlns="http://www.w3.org/2000/svg">
<g filter="url(#filter0_d_82_2)">
<rect x="5" y="6" width="53" height="53" rx="26.5" fill="#F3F6FF"/>
</g>
<g clip-path="url(#clip0_82_2)">
<path fill-rule="evenodd" clip-rule="evenodd" d="M37.7771 24.43C38.0243 24.326 38.2947 24.2901 38.5604 24.3261C38.8261 24.3621 39.0773 24.4686 39.2878 24.6347C39.4984 24.8007 39.6606 25.0201 39.7575 25.27C39.8545 25.52 39.8827 25.7914 39.8391 26.056L37.5711 39.813C37.3511 41.14 35.8951 41.901 34.6781 41.24C33.6601 40.687 32.1481 39.835 30.7881 38.946C30.1081 38.501 28.0251 37.076 28.2811 36.062C28.5011 35.195 32.0011 31.937 34.0011 30C34.7861 29.239 34.4281 28.8 33.5011 29.5C31.1981 31.238 27.5031 33.881 26.2811 34.625C25.2031 35.281 24.6411 35.393 23.9691 35.281C22.7431 35.077 21.6061 34.761 20.6781 34.376C19.4241 33.856 19.4851 32.132 20.6771 31.63L37.7771 24.43Z" fill="#76A3FF"/>
</g>
<defs>
<filter id="filter0_d_82_2" x="0" y="0" width="73" height="73" filterUnits="userSpaceOnUse" color-interpolation-filters="sRGB">
<feFlood flood-opacity="0" result="BackgroundImageFix"/>
<feColorMatrix in="SourceAlpha" type="matrix" values="0 0 0 0 0 0 0 0 0 0 0 0 0 0 0 0 0 0 127 0" result="hardAlpha"/>
<feOffset dx="5" dy="4"/>
<feGaussianBlur stdDeviation="5"/>
<feComposite in2="hardAlpha" operator="out"/>
<feColorMatrix type="matrix" values="0 0 0 0 0 0 0 0 0 0 0 0 0 0 0 0 0 0 0.1 0"/>
<feBlend mode="normal" in2="BackgroundImageFix" result="effect1_dropShadow_82_2"/>
<feBlend mode="normal" in="SourceGraphic" in2="effect1_dropShadow_82_2" result="shape"/>
</filter>
<clipPath id="clip0_82_2">
<rect width="24" height="24" fill="white" transform="translate(18 20)"/>
</clipPath>
</defs>
</svg>
